# xmcd
#
# Track frame offsets:
#       150
#       12570
#       24400
#       37635
#       51355
#       71705
#       81117
#       97522
#       108342
#       121657
#       133257
#       150180
#       166762
#       180160
#       188985
#       199442
#       209255
#       223810
#       234235
#       247105
#       264487
#       277810
#       288650
#       305710
#       316027
#
# Disc length: 4427 seconds
#
# Revision: 0
# Processed by: cddbd v1.4PL0 Copyright (c) Steve Scherf et al.
# Submitted via: WhereIsIt 3.26
#
DISCID=52114919
DTITLE=Various Artist - Das grosse Deutsche Country Festival [CD 1)
DYEAR=1900
DGENRE=
TTITLE0=Truck Stop - Der wilde, wilde Westen
TTITLE1=Tom Astor - Hallo, guten Morgen Deutschland
TTITLE2=Freddy Quinn - Hallo liebe Freunde - it's Country Time
TTITLE3=Gunter Gabriel - Hey Boss, ich brauch' mehr Geld
TTITLE4=Jonny Hill - Der Feigling
TTITLE5=Ralf Paulsen - Bonanza
TTITLE6=Linda Feller - Warum kann ich nicht vergessen
TTITLE7=Peter Held - Die Wahrheit über Tom Dooley
TTITLE8=Truck Stop - Take it easy, altes Haus
TTITLE9=Greyhounds - Nimm es leicht
TTITLE10=Nashville Music Company - Country in good Old Germany
TTITLE11=Larry Schuba and Western Union - Ich möcht' so gern mal nach Nashville
TTITLE12=Freddy Quinn - Oh, nur mit Dir
TTITLE13=Jonny Hill - Ein Ring aus Feuer
TTITLE14=Peter Hinnen - Siebentausend Rinder
TTITLE15=Peter Held - Oh, wie schade, Clementine
TTITLE16=Truck Stop - Louisiana Ladies
TTITLE17=Ralf Paulsen - Geisterreiter
TTITLE18=Mike Herman and Booze Company - Verliebt in Country
TTITLE19=Sammy's Saloon feat Nancy Wood - Country Queen
TTITLE20=Dagmar - The Lady of Country - Laß mich damit bloß in Ruhe
TTITLE21=Jonny Hill - Die Arbeit hört nie auf
TTITLE22=Truck Stop - Old Texas Town, die Westernstadt
TTITLE23=Peter Held - Die schönste Frau aus Texas
TTITLE24=Tennessee - Auf Wiederseh'n in Nashville
EXTD=
EXTT0=
EXTT1=
EXTT2=
EXTT3=
EXTT4=
EXTT5=
EXTT6=
EXTT7=
EXTT8=
EXTT9=
EXTT10=
EXTT11=
EXTT12=
EXTT13=
EXTT14=
EXTT15=
EXTT16=
EXTT17=
EXTT18=
EXTT19=
EXTT20=
EXTT21=
EXTT22=
EXTT23=
EXTT24=
PLAYORDER=
